<svg xmlns="http://www.w3.org/2000/svg" xmlns:xlink="http://www.w3.org/1999/xlink" width="500" zoomAndPan="magnify" viewBox="0 0 375 374.999991" height="500" preserveAspectRatio="xMidYMid meet" version="1.2"><defs><clipPath id="3e23c96b8a"><path d="M 101.871094 33 L 272 33 L 272 201.996094 L 101.871094 201.996094 Z M 101.871094 33 "/></clipPath><clipPath id="fb642a5878"><path d="M 149 18.246094 L 235 18.246094 L 235 57 L 149 57 Z M 149 18.246094 "/></clipPath><clipPath id="a53b86d559"><path d="M 58.054688 157.082031 L 316.804688 157.082031 L 316.804688 210 L 58.054688 210 Z M 58.054688 157.082031 "/></clipPath><clipPath id="7cec5bcbfd"><path d="M 79 180 L 299 180 L 299 356.582031 L 79 356.582031 Z M 79 180 "/></clipPath></defs><g id="43c3da937c"><g clip-rule="nonzero" clip-path="url(#3e23c96b8a)"><path style=" stroke:none;fill-rule:nonzero;fill:#ffedaf;fill-opacity:1;" d="M 270.621094 201.988281 L 101.925781 201.988281 L 101.925781 33.179688 L 226.886719 33.179688 C 251.878906 33.179688 270.757812 33.179688 270.621094 33.179688 C 271.058594 33.179688 272.816406 51.9375 270.621094 76.945312 Z M 270.621094 201.988281 "/></g><g clip-rule="nonzero" clip-path="url(#fb642a5878)"><path style=" stroke:none;fill-rule:nonzero;fill:#fbc421;fill-opacity:0.35;" d="M 233.960938 43.511719 L 230.550781 44.085938 C 228.359375 44.355469 225.277344 44.976562 221.554688 45.605469 C 217.824219 46.175781 213.457031 46.769531 208.839844 47.75 C 204.191406 48.566406 199.21875 49.339844 194.261719 50.210938 C 189.273438 50.898438 184.375 52.105469 179.683594 52.671875 C 175.085938 53.796875 170.683594 54.167969 166.96875 54.816406 C 163.246094 55.453125 160.144531 55.96875 157.972656 56.335938 C 155.804688 56.699219 154.5625 56.910156 154.5625 56.910156 C 154.5625 56.910156 154.441406 56.207031 154.246094 55.039062 C 153.441406 54.933594 156.710938 54.089844 154.105469 54.199219 C 157.363281 53.320312 154.507812 53.429688 153.925781 53.121094 C 150.9375 53.21875 151.984375 52.597656 153.832031 51.8125 C 154.414062 51.238281 153.460938 50.894531 153.457031 50.359375 C 153.9375 49.9375 153.359375 49.582031 153.464844 49.050781 C 149.144531 49.523438 155.289062 48.214844 153.605469 48.214844 C 160.855469 46.710938 154.503906 47.492188 152.96875 47.457031 C 147.03125 48.167969 150.019531 47.367188 149.226562 47.207031 C 148.984375 46.953125 149.644531 46.550781 152.800781 45.738281 C 153.007812 45.421875 153.910156 44.996094 153.351562 44.835938 C 150.128906 45.125 148.109375 45.222656 152.433594 44.277344 C 150.363281 44.128906 150.964844 43.507812 152.234375 42.769531 C 148.808594 43.082031 150.238281 42.574219 151.828125 42.039062 C 151.636719 41.804688 153.207031 41.269531 151.917969 41.21875 C 155.089844 40.148438 148.40625 40.742188 151.847656 39.640625 C 150.097656 39.671875 153.582031 38.828125 151.035156 39.003906 C 151.148438 38.730469 150.542969 38.582031 151.40625 38.191406 C 151.042969 37.90625 151.546875 37.507812 151.410156 37.242188 C 153.066406 36.679688 155.414062 36.023438 151.824219 36.394531 C 152.933594 35.738281 154.058594 35.167969 150.929688 35.355469 C 149.347656 34.945312 152.65625 33.878906 150.617188 33.511719 C 151.898438 32.539062 149.8125 31.902344 150.304688 31.640625 C 149.277344 31 149.914062 31.453125 151.863281 31.375 C 154.226562 30.972656 147.914062 32.042969 153.714844 31.066406 C 155.371094 30.789062 150.410156 31.628906 156.183594 30.644531 C 159.46875 30.003906 161.011719 29.707031 157.863281 30.234375 C 160.726562 29.746094 156.824219 30.429688 159.195312 30.0625 C 161.839844 29.644531 166.527344 28.894531 160.910156 29.863281 C 163.574219 29.433594 162.335938 29.644531 162.710938 29.546875 C 162.902344 29.417969 165.378906 28.996094 164.609375 29.148438 C 167.613281 28.660156 166.375 28.910156 166.625 28.863281 C 166.640625 28.855469 166.792969 28.824219 169.429688 28.371094 C 171.164062 28.078125 168.878906 28.460938 172.367188 27.878906 C 174.152344 27.582031 175.039062 27.445312 175.425781 27.398438 C 176.488281 27.347656 181.785156 26.519531 182.632812 26.378906 C 186.53125 25.722656 185.242188 25.875 190.003906 24.9375 C 192.480469 24.257812 194.921875 23.816406 197.371094 23.453125 C 199.824219 23.089844 202.246094 22.8125 204.582031 22.476562 C 209.148438 21.167969 213.582031 20.996094 217.296875 20.332031 C 221.03125 19.757812 224.179688 19.511719 226.292969 18.8125 L 229.703125 18.238281 C 229.703125 18.238281 229.96875 19.816406 230.371094 22.1875 C 235.167969 21.984375 233.007812 23.011719 233.226562 23.671875 C 236.640625 23.445312 230.09375 24.90625 234.886719 24.464844 C 235.136719 24.789062 231.34375 25.804688 231.050781 26.234375 C 231.78125 26.488281 230.132812 27.15625 227.757812 27.945312 C 227.183594 28.4375 227.738281 28.738281 231.25 28.546875 C 230.621094 29.449219 230.46875 30.289062 231.832031 30.871094 C 231.789062 31.691406 233.179688 32.265625 232.472656 33.1875 C 233.097656 33.878906 234.570312 34.417969 232.617188 35.507812 C 229.714844 38.28125 233.015625 39.78125 233.570312 41.171875 L 233.964844 43.503906 Z M 233.960938 43.511719 "/></g><g clip-rule="nonzero" clip-path="url(#a53b86d559)"><path style=" stroke:none;fill-rule:nonzero;fill:#ef923f;fill-opacity:1;" d="M 316.804688 175.214844 L 316.804688 191.277344 C 316.804688 201.199219 308.769531 209.113281 298.84375 209.113281 L 75.894531 209.113281 C 66.089844 209.230469 58.054688 201.199219 58.054688 191.277344 L 58.054688 175.214844 C 58.054688 165.292969 66.089844 157.257812 75.894531 157.257812 L 298.84375 157.257812 C 308.769531 157.257812 316.804688 165.292969 316.804688 175.214844 Z M 316.804688 175.214844 "/></g><g clip-rule="nonzero" clip-path="url(#7cec5bcbfd)"><path style=" stroke:none;fill-rule:nonzero;fill:#ef923f;fill-opacity:1;" d="M 298.609375 180.527344 L 292.230469 209.230469 L 288.683594 225.296875 L 259.382812 356.40625 L 118.546875 356.40625 L 89.363281 225.296875 L 85.703125 209.230469 L 79.320312 180.527344 Z M 298.609375 180.527344 "/></g><path style=" stroke:none;fill-rule:nonzero;fill:#bf6821;fill-opacity:1;" d="M 292.230469 209.230469 L 288.683594 225.296875 L 89.363281 225.296875 L 85.703125 209.230469 Z M 292.230469 209.230469 "/></g></svg>